<?xml version="1.0" encoding="utf-8"?>
<svg version="1.1" xmlns:xlink="http://www.w3.org/1999/xlink" width="18px" height="16px" xmlns="http://www.w3.org/2000/svg">
  <g>
    <path d="M 17.77734375 13.0375  C 17.92578125 13.1958333333333  18 13.3833333333333  18 13.6  L 18 15.2  C 18 15.4166666666667  17.92578125 15.6041666666667  17.77734375 15.7625  C 17.62890625 15.9208333333333  17.453125 16  17.25 16  L 0.75 16  C 0.546875 16  0.37109375 15.9208333333333  0.22265625 15.7625  C 0.07421875 15.6041666666667  0 15.4166666666667  0 15.2  L 0 13.6  C 0 13.3833333333333  0.07421875 13.1958333333333  0.22265625 13.0375  C 0.37109375 12.8791666666667  0.546875 12.8  0.75 12.8  L 17.25 12.8  C 17.453125 12.8  17.62890625 12.8791666666667  17.77734375 13.0375  Z M 17.77734375 6.6375  C 17.92578125 6.79583333333333  18 6.98333333333333  18 7.2  L 18 8.8  C 18 9.01666666666667  17.92578125 9.20416666666667  17.77734375 9.3625  C 17.62890625 9.52083333333333  17.453125 9.6  17.25 9.6  L 0.75 9.6  C 0.546875 9.6  0.37109375 9.52083333333333  0.22265625 9.3625  C 0.07421875 9.20416666666667  0 9.01666666666667  0 8.8  L 0 7.2  C 0 6.98333333333333  0.07421875 6.79583333333333  0.22265625 6.6375  C 0.37109375 6.47916666666667  0.546875 6.4  0.75 6.4  L 17.25 6.4  C 17.453125 6.4  17.62890625 6.47916666666667  17.77734375 6.6375  Z M 17.77734375 0.237500000000001  C 17.92578125 0.395833333333332  18 0.583333333333332  18 0.800000000000001  L 18 2.4  C 18 2.61666666666667  17.92578125 2.80416666666667  17.77734375 2.9625  C 17.62890625 3.12083333333333  17.453125 3.2  17.25 3.2  L 0.75 3.2  C 0.546875 3.2  0.37109375 3.12083333333333  0.22265625 2.9625  C 0.07421875 2.80416666666667  0 2.61666666666667  0 2.4  L 0 0.800000000000001  C 0 0.583333333333332  0.07421875 0.395833333333332  0.22265625 0.237500000000001  C 0.37109375 0.0791666666666657  0.546875 0  0.75 0  L 17.25 0  C 17.453125 0  17.62890625 0.0791666666666657  17.77734375 0.237500000000001  Z " fill-rule="nonzero" fill="#ffffff" stroke="none" />
  </g>
</svg>