<?xml version="1.0" encoding="utf-8"?>
<svg version="1.1" xmlns:xlink="http://www.w3.org/1999/xlink" width="18px" height="18px" xmlns="http://www.w3.org/2000/svg">
  <g transform="matrix(1 0 0 1 -1207 -40 )">
    <path d="M 11.12109375 11.12109375  C 11.70703125 10.53515625  12 9.828125  12 9  C 12 8.171875  11.70703125 7.46484375  11.12109375 6.87890625  C 10.53515625 6.29296875  9.828125 6  9 6  C 8.171875 6  7.46484375 6.29296875  6.87890625 6.87890625  C 6.29296875 7.46484375  6 8.171875  6 9  C 6 9.828125  6.29296875 10.53515625  6.87890625 11.12109375  C 7.46484375 11.70703125  8.171875 12  9 12  C 9.828125 12  10.53515625 11.70703125  11.12109375 11.12109375  Z M 17.90625 7.447265625  C 17.96875 7.529296875  18 7.62109375  18 7.72265625  L 18 10.32421875  C 18 10.41796875  17.96875 10.5078125  17.90625 10.59375  C 17.84375 10.6796875  17.765625 10.73046875  17.671875 10.74609375  L 15.50390625 11.07421875  C 15.35546875 11.49609375  15.203125 11.8515625  15.046875 12.140625  C 15.3203125 12.53125  15.73828125 13.0703125  16.30078125 13.7578125  C 16.37890625 13.8515625  16.41796875 13.94921875  16.41796875 14.05078125  C 16.41796875 14.15234375  16.3828125 14.2421875  16.3125 14.3203125  C 16.1015625 14.609375  15.71484375 15.03125  15.15234375 15.5859375  C 14.58984375 16.140625  14.22265625 16.41796875  14.05078125 16.41796875  C 13.95703125 16.41796875  13.85546875 16.3828125  13.74609375 16.3125  L 12.12890625 15.046875  C 11.78515625 15.2265625  11.4296875 15.375  11.0625 15.4921875  C 10.9375 16.5546875  10.82421875 17.28125  10.72265625 17.671875  C 10.66796875 17.890625  10.52734375 18  10.30078125 18  L 7.69921875 18  C 7.58984375 18  7.494140625 17.966796875  7.412109375 17.900390625  C 7.330078125 17.833984375  7.28515625 17.75  7.27734375 17.6484375  L 6.94921875 15.4921875  C 6.56640625 15.3671875  6.21484375 15.22265625  5.89453125 15.05859375  L 4.2421875 16.3125  C 4.1640625 16.3828125  4.06640625 16.41796875  3.94921875 16.41796875  C 3.83984375 16.41796875  3.7421875 16.375  3.65625 16.2890625  C 2.671875 15.3984375  2.02734375 14.7421875  1.72265625 14.3203125  C 1.66796875 14.2421875  1.640625 14.15234375  1.640625 14.05078125  C 1.640625 13.95703125  1.671875 13.8671875  1.734375 13.78125  C 1.8515625 13.6171875  2.05078125 13.357421875  2.33203125 13.001953125  C 2.61328125 12.646484375  2.82421875 12.37109375  2.96484375 12.17578125  C 2.75390625 11.78515625  2.59375 11.3984375  2.484375 11.015625  L 0.33984375 10.69921875  C 0.23828125 10.68359375  0.15625 10.634765625  0.09375 10.552734375  C 0.03125 10.470703125  0 10.37890625  0 10.27734375  L 0 7.67578125  C 0 7.58203125  0.03125 7.4921875  0.09375 7.40625  C 0.15625 7.3203125  0.23046875 7.26953125  0.31640625 7.25390625  L 2.49609375 6.92578125  C 2.60546875 6.56640625  2.7578125 6.20703125  2.953125 5.84765625  C 2.640625 5.40234375  2.22265625 4.86328125  1.69921875 4.23046875  C 1.62109375 4.13671875  1.58203125 4.04296875  1.58203125 3.94921875  C 1.58203125 3.87109375  1.6171875 3.78125  1.6875 3.6796875  C 1.890625 3.3984375  2.275390625 2.978515625  2.841796875 2.419921875  C 3.408203125 1.861328125  3.77734375 1.58203125  3.94921875 1.58203125  C 4.05078125 1.58203125  4.15234375 1.62109375  4.25390625 1.69921875  L 5.87109375 2.953125  C 6.21484375 2.7734375  6.5703125 2.625  6.9375 2.5078125  C 7.0625 1.4453125  7.17578125 0.718749999999998  7.27734375 0.328124999999999  C 7.33203125 0.109374999999999  7.47265625 0  7.69921875 0  L 10.30078125 0  C 10.41015625 0  10.505859375 0.0332031249999984  10.587890625 0.0996093749999993  C 10.669921875 0.166015624999998  10.71484375 0.249999999999999  10.72265625 0.3515625  L 11.05078125 2.5078125  C 11.43359375 2.6328125  11.78515625 2.77734375  12.10546875 2.94140625  L 13.76953125 1.6875  C 13.83984375 1.6171875  13.93359375 1.58203125  14.05078125 1.58203125  C 14.15234375 1.58203125  14.25 1.62109375  14.34375 1.69921875  C 15.3515625 2.62890625  15.99609375 3.29296875  16.27734375 3.69140625  C 16.33203125 3.75390625  16.359375 3.83984375  16.359375 3.94921875  C 16.359375 4.04296875  16.328125 4.1328125  16.265625 4.21875  C 16.1484375 4.3828125  15.94921875 4.642578125  15.66796875 4.998046875  C 15.38671875 5.353515625  15.17578125 5.62890625  15.03515625 5.82421875  C 15.23828125 6.21484375  15.3984375 6.59765625  15.515625 6.97265625  L 17.66015625 7.30078125  C 17.76171875 7.31640625  17.84375 7.365234375  17.90625 7.447265625  Z " fill-rule="nonzero" fill="#ffffff" stroke="none" transform="matrix(1 0 0 1 1207 40 )" />
  </g>
</svg>