<?xml version="1.0" encoding="utf-8"?>
<svg version="1.1" xmlns:xlink="http://www.w3.org/1999/xlink" width="12px" height="12px" xmlns="http://www.w3.org/2000/svg">
  <g transform="matrix(1 0 0 1 -940 -529 )">
    <path d="M 11.7350543478261 4.81001283697048  C 11.9116847826087 5.00256739409499  12 5.23491655969191  12 5.50706033376123  L 12 6.49293966623877  C 12 6.76508344030809  11.9116847826087 6.99743260590501  11.7350543478261 7.18998716302952  C 11.5584239130435 7.38254172015404  11.3288043478261 7.4788189987163  11.0461956521739 7.4788189987163  L 5.3070652173913 7.4788189987163  L 7.69565217391304 9.74326059050064  C 7.90217391304348 9.92811296534018  8.0054347826087 10.1591784338896  8.0054347826087 10.4364569961489  C 8.0054347826087 10.7137355584082  7.90217391304348 10.9448010269576  7.69565217391304 11.1296534017972  L 7.08423913043478 11.7150192554557  C 6.88315217391304 11.9050064184852  6.63858695652174 12  6.35054347826087 12  C 6.0679347826087 12  5.82065217391304 11.9050064184852  5.60869565217391 11.7150192554557  L 0.301630434782609 6.69319640564827  C 0.10054347826087 6.50320924261874  0 6.27214377406932  0 6  C 0 5.73299101412067  0.10054347826087 5.49935815147625  0.301630434782609 5.29910141206675  L 5.60869565217391 0.292682926829269  C 5.81521739130435 0.0975609756097553  6.0625 0  6.35054347826087 0  C 6.63315217391304 0  6.87771739130435 0.0975609756097553  7.08423913043478 0.292682926829269  L 7.69565217391304 0.862644415917843  C 7.90217391304348 1.05776636713736  8.0054347826087 1.29139922978177  8.0054347826087 1.56354300385109  C 8.0054347826087 1.83568677792041  7.90217391304348 2.06931964056483  7.69565217391304 2.26444159178434  L 5.3070652173913 4.5211810012837  L 11.0461956521739 4.5211810012837  C 11.3288043478261 4.5211810012837  11.5584239130435 4.61745827984596  11.7350543478261 4.81001283697048  Z " fill-rule="nonzero" fill="#ffffff" stroke="none" transform="matrix(1 0 0 1 940 529 )" />
  </g>
</svg>