<?xml version="1.0" encoding="utf-8"?>
<svg version="1.1" xmlns:xlink="http://www.w3.org/1999/xlink" width="12px" height="12px" xmlns="http://www.w3.org/2000/svg">
  <g transform="matrix(1 0 0 1 -1067 -569 )">
    <path d="M 11.7613636363636 4.60227272727273  C 11.9204545454545 4.76136363636363  12 4.95454545454545  12 5.18181818181818  L 12 6.81818181818182  C 12 7.04545454545455  11.9204545454545 7.23863636363636  11.7613636363636 7.39772727272727  C 11.6022727272727 7.55681818181818  11.4090909090909 7.63636363636364  11.1818181818182 7.63636363636364  L 7.63636363636364 7.63636363636364  L 7.63636363636364 11.1818181818182  C 7.63636363636364 11.4090909090909  7.55681818181818 11.6022727272727  7.39772727272727 11.7613636363636  C 7.23863636363637 11.9204545454545  7.04545454545455 12  6.81818181818182 12  L 5.18181818181818 12  C 4.95454545454546 12  4.76136363636364 11.9204545454545  4.60227272727273 11.7613636363636  C 4.44318181818182 11.6022727272727  4.36363636363636 11.4090909090909  4.36363636363636 11.1818181818182  L 4.36363636363636 7.63636363636364  L 0.818181818181818 7.63636363636364  C 0.590909090909091 7.63636363636364  0.397727272727273 7.55681818181818  0.238636363636364 7.39772727272727  C 0.0795454545454545 7.23863636363636  0 7.04545454545455  0 6.81818181818182  L 0 5.18181818181818  C 0 4.95454545454545  0.0795454545454545 4.76136363636363  0.238636363636364 4.60227272727273  C 0.397727272727273 4.44318181818182  0.590909090909091 4.36363636363636  0.818181818181818 4.36363636363636  L 4.36363636363636 4.36363636363636  L 4.36363636363636 0.818181818181819  C 4.36363636363636 0.59090909090909  4.44318181818182 0.397727272727272  4.60227272727273 0.238636363636364  C 4.76136363636364 0.0795454545454541  4.95454545454546 0  5.18181818181818 0  L 6.81818181818182 0  C 7.04545454545455 0  7.23863636363637 0.0795454545454541  7.39772727272727 0.238636363636364  C 7.55681818181818 0.397727272727272  7.63636363636364 0.59090909090909  7.63636363636364 0.818181818181819  L 7.63636363636364 4.36363636363636  L 11.1818181818182 4.36363636363636  C 11.4090909090909 4.36363636363636  11.6022727272727 4.44318181818182  11.7613636363636 4.60227272727273  Z " fill-rule="nonzero" fill="#ffffff" stroke="none" fill-opacity="0.996078431372549" transform="matrix(1 0 0 1 1067 569 )" />
  </g>
</svg>