<?xml version="1.0" encoding="utf-8"?>
<svg version="1.1" xmlns:xlink="http://www.w3.org/1999/xlink" width="50px" height="58px" xmlns="http://www.w3.org/2000/svg">
  <g transform="matrix(1 0 0 1 -46 -200 )">
    <path d="M 41.6666666666667 16.5714285714286  C 41.6666666666667 19.7433035714286  40.8094618055556 22.6778273809524  39.0950520833333 25.375  C 40.1150173611111 25.6770833333333  41.0861545138889 26.0870535714286  42.0084635416667 26.6049107142857  C 42.9307725694445 27.1227678571429  43.896484375 27.9103422619048  44.9055989583333 28.9676339285714  C 45.9147135416667 30.0249255952381  46.77734375 31.2710193452381  47.4934895833333 32.7059151785714  C 48.2096354166667 34.1408110119048  48.8064236111111 35.9964657738095  49.2838541666667 38.2728794642857  C 49.7612847222222 40.5492931547619  50 43.100818452381  50 45.9274553571429  C 50 49.2503720238095  48.9149305555556 52.0931919642857  46.7447916666667 54.4559151785714  C 44.5746527777778 56.8186383928571  41.9596354166667 58  38.8997395833333 58  L 11.1002604166667 58  C 8.04036458333333 58  5.42534722222222 56.8186383928571  3.25520833333333 54.4559151785714  C 1.08506944444444 52.0931919642857  0 49.2503720238095  0 45.9274553571429  C 0 43.100818452381  0.238715277777778 40.5492931547619  0.716145833333333 38.2728794642857  C 1.19357638888889 35.9964657738095  1.79036458333333 34.1408110119048  2.50651041666667 32.7059151785714  C 3.22265625 31.2710193452381  4.08528645833333 30.0249255952381  5.09440104166667 28.9676339285714  C 6.103515625 27.9103422619048  7.06922743055556 27.1227678571429  7.99153645833333 26.6049107142857  C 8.91384548611111 26.0870535714286  9.88498263888889 25.6770833333333  10.9049479166667 25.375  C 9.19053819444445 22.6778273809524  8.33333333333333 19.7433035714286  8.33333333333333 16.5714285714286  C 8.33333333333333 14.3273809523809  8.77278645833333 12.1858258928571  9.65169270833333 10.1467633928571  C 10.5305989583333 8.10770089285714  11.71875 6.34375  13.2161458333333 4.85491071428571  C 14.7135416666667 3.36607142857143  16.4876302083333 2.18470982142857  18.5384114583333 1.31082589285714  C 20.5891927083333 0.436941964285712  22.7430555555556 0  25 0  C 27.2569444444444 0  29.4108072916667 0.436941964285712  31.4615885416667 1.31082589285714  C 33.5123697916667 2.18470982142857  35.2864583333333 3.36607142857143  36.7838541666667 4.85491071428571  C 38.28125 6.34375  39.4694010416667 8.10770089285714  40.3483072916667 10.1467633928571  C 41.2272135416667 12.1858258928571  41.6666666666667 14.3273809523809  41.6666666666667 16.5714285714286  Z M 33.837890625 7.78404017857143  C 31.396484375 5.35658482142857  28.4505208333333 4.14285714285714  25 4.14285714285714  C 21.5494791666667 4.14285714285714  18.603515625 5.35658482142857  16.162109375 7.78404017857143  C 13.720703125 10.2114955357143  12.5 13.140625  12.5 16.5714285714286  C 12.5 20.0022321428571  13.720703125 22.9313616071429  16.162109375 25.3588169642857  C 18.603515625 27.7862723214286  21.5494791666667 29  25 29  C 28.4505208333333 29  31.396484375 27.7862723214286  33.837890625 25.3588169642857  C 36.279296875 22.9313616071429  37.5 20.0022321428571  37.5 16.5714285714286  C 37.5 13.140625  36.279296875 10.2114955357143  33.837890625 7.78404017857143  Z M 11.1002604166667 53  L 38.8997395833333 53  C 40.8094618055556 53.8571428571429  42.4424913194445 53.0857514880952  43.798828125 51.54296875  C 45.1551649305556 50.0001860119048  45.8333333333333 48.1283482142857  45.8333333333333 45.9274553571429  C 45.8333333333333 40.7704613095238  44.9815538194445 36.703125  43.2779947916667 33.7254464285714  C 41.5744357638889 30.7477678571429  39.1276041666667 29.1834077380952  35.9375 29.0323660714286  C 32.7907986111111 31.772693452381  29.1449652777778 33.1428571428571  25 33.1428571428571  C 20.8550347222222 33.1428571428571  17.2092013888889 31.772693452381  14.0625 29.0323660714286  C 10.8723958333333 29.1834077380952  8.42556423611111 30.7477678571429  6.72200520833333 33.7254464285714  C 5.01844618055556 36.703125  4.16666666666667 40.7704613095238  4.16666666666667 45.9274553571429  C 4.16666666666667 48.1283482142857  4.84483506944444 50.0001860119048  6.201171875 51.54296875  C 7.55750868055556 53.0857514880952  9.19053819444445 53.8571428571429  11.1002604166667 53  Z " fill-rule="nonzero" fill="#000000" stroke="none" transform="matrix(1 0 0 1 46 200 )" />
  </g>
</svg>