<?xml version="1.0" encoding="utf-8"?>
<svg version="1.1" xmlns:xlink="http://www.w3.org/1999/xlink" width="14px" height="16px" xmlns="http://www.w3.org/2000/svg">
  <g transform="matrix(1 0 0 1 -1291 -40 )">
    <path d="M 13.2662760416667 5.31730769230769  C 13.7554253472222 6.34935897435897  14 7.44871794871795  14 8.61538461538462  C 14 9.61538461538462  13.8146701388889 10.5705128205128  13.4440104166667 11.4807692307692  C 13.0733506944444 12.3910256410256  12.5750868055556 13.1762820512821  11.94921875 13.8365384615385  C 11.3233506944444 14.4967948717949  10.5789930555556 15.0224358974359  9.71614583333333 15.4134615384615  C 8.85329861111111 15.8044871794872  7.94791666666667 16  7 16  C 6.05208333333333 16  5.14670138888889 15.8044871794872  4.28385416666667 15.4134615384615  C 3.42100694444445 15.0224358974359  2.67664930555556 14.4967948717949  2.05078125 13.8365384615385  C 1.42491319444444 13.1762820512821  0.926649305555556 12.3910256410256  0.555989583333333 11.4807692307692  C 0.185329861111111 10.5705128205128  0 9.61538461538462  0 8.61538461538462  C 0 7.44871794871795  0.244574652777778 6.34935897435897  0.733723958333333 5.31730769230769  C 1.22287326388889 4.28525641025641  1.91102430555556 3.41987179487179  2.79817708333333 2.72115384615385  C 3.05946180555556 2.51602564102564  3.349609375 2.43589743589743  3.66861979166667 2.48076923076923  C 3.98763020833333 2.52564102564102  4.24131944444444 2.68589743589743  4.4296875 2.96153846153846  C 4.62413194444444 3.23076923076923  4.69856770833333 3.53365384615385  4.65299479166667 3.87019230769231  C 4.607421875 4.20673076923077  4.45703125 4.4775641025641  4.20182291666667 4.68269230769231  C 3.60633680555556 5.15705128205128  3.14605034722222 5.73717948717949  2.82096354166667 6.42307692307692  C 2.49587673611111 7.10897435897436  2.33333333333333 7.83974358974359  2.33333333333333 8.61538461538462  C 2.33333333333333 9.28205128205128  2.45638020833333 9.91826923076923  2.70247395833333 10.5240384615385  C 2.94856770833333 11.1298076923077  3.28125 11.6538461538462  3.70052083333333 12.0961538461538  C 4.11979166666667 12.5384615384615  4.61653645833333 12.8894230769231  5.19075520833333 13.1490384615385  C 5.76497395833333 13.4086538461538  6.36805555555556 13.5384615384615  7 13.5384615384615  C 7.63194444444445 13.5384615384615  8.23502604166667 13.4086538461538  8.80924479166667 13.1490384615385  C 9.38346354166667 12.8894230769231  9.88020833333333 12.5384615384615  10.2994791666667 12.0961538461538  C 10.71875 11.6538461538462  11.0514322916667 11.1298076923077  11.2975260416667 10.5240384615385  C 11.5436197916667 9.91826923076923  11.6666666666667 9.28205128205128  11.6666666666667 8.61538461538462  C 11.6666666666667 7.83974358974359  11.5041232638889 7.10897435897436  11.1790364583333 6.42307692307692  C 10.8539496527778 5.73717948717949  10.3936631944444 5.15705128205128  9.79817708333333 4.68269230769231  C 9.54296875 4.4775641025641  9.392578125 4.20673076923077  9.34700520833333 3.87019230769231  C 9.30143229166667 3.53365384615385  9.37586805555556 3.23076923076923  9.5703125 2.96153846153846  C 9.75868055555556 2.68589743589743  10.0138888888889 2.52564102564102  10.3359375 2.48076923076923  C 10.6579861111111 2.43589743589743  10.9466145833333 2.51602564102564  11.2018229166667 2.72115384615385  C 12.0889756944444 3.41987179487179  12.7771267361111 4.28525641025641  13.2662760416667 5.31730769230769  Z M 7.8203125 0.365384615384615  C 8.05121527777778 0.608974358974358  8.16666666666667 0.897435897435896  8.16666666666667 1.23076923076923  L 8.16666666666667 7.38461538461539  C 8.16666666666667 7.71794871794872  8.05121527777778 8.00641025641026  7.8203125 8.25  C 7.58940972222222 8.49358974358974  7.31597222222222 8.61538461538462  7 8.61538461538462  C 6.68402777777778 8.61538461538462  6.41059027777778 8.49358974358974  6.1796875 8.25  C 5.94878472222222 8.00641025641026  5.83333333333333 7.71794871794872  5.83333333333333 7.38461538461539  L 5.83333333333333 1.23076923076923  C 5.83333333333333 0.897435897435896  5.94878472222222 0.608974358974358  6.1796875 0.365384615384615  C 6.41059027777778 0.121794871794872  6.68402777777778 0  7 0  C 7.31597222222222 0  7.58940972222222 0.121794871794872  7.8203125 0.365384615384615  Z " fill-rule="nonzero" fill="#d7d7d7" stroke="none" transform="matrix(1 0 0 1 1291 40 )" />
  </g>
</svg>