<?xml version="1.0" encoding="utf-8"?>
<svg version="1.1" xmlns:xlink="http://www.w3.org/1999/xlink" width="16px" height="19px" xmlns="http://www.w3.org/2000/svg">
  <g transform="matrix(1 0 0 1 -1265 -37 )">
    <path d="M 13.3333333333333 5.42857142857143  C 13.3333333333333 6.46763392857143  13.0590277777778 7.42894345238095  12.5104166666667 8.3125  C 12.8368055555556 8.41145833333333  13.1475694444444 8.54575892857143  13.4427083333333 8.71540178571428  C 13.7378472222222 8.88504464285714  14.046875 9.1430431547619  14.3697916666667 9.48939732142857  C 14.6927083333333 9.83575148809524  14.96875 10.2439546130952  15.1979166666667 10.7140066964286  C 15.4270833333333 11.1840587797619  15.6180555555556 11.7919456845238  15.7708333333333 12.5376674107143  C 15.9236111111111 13.2833891369048  16 14.1192336309524  16 15.0452008928571  C 16 16.1337425595238  15.6527777777778 17.0650111607143  14.9583333333333 17.8390066964286  C 14.2638888888889 18.6130022321429  13.4270833333333 19  12.4479166666667 19  L 3.55208333333333 19  C 2.57291666666667 19  1.73611111111111 18.6130022321429  1.04166666666667 17.8390066964286  C 0.347222222222222 17.0650111607143  0 16.1337425595238  0 15.0452008928571  C 0 14.1192336309524  0.0763888888888889 13.2833891369048  0.229166666666667 12.5376674107143  C 0.381944444444444 11.7919456845238  0.572916666666667 11.1840587797619  0.802083333333333 10.7140066964286  C 1.03125 10.2439546130952  1.30729166666667 9.83575148809524  1.63020833333333 9.48939732142857  C 1.953125 9.1430431547619  2.26215277777778 8.88504464285714  2.55729166666667 8.71540178571428  C 2.85243055555556 8.54575892857143  3.16319444444444 8.41145833333333  3.48958333333333 8.3125  C 2.94097222222222 7.42894345238095  2.66666666666667 6.46763392857143  2.66666666666667 5.42857142857143  C 2.66666666666667 4.69345238095238  2.80729166666667 3.99190848214286  3.08854166666667 3.32393973214286  C 3.36979166666667 2.65597098214286  3.75 2.078125  4.22916666666667 1.59040178571428  C 4.70833333333333 1.10267857142857  5.27604166666667 0.715680803571428  5.93229166666667 0.429408482142857  C 6.58854166666667 0.143136160714285  7.27777777777778 0  8 0  C 8.72222222222222 0  9.41145833333333 0.143136160714285  10.0677083333333 0.429408482142857  C 10.7239583333333 0.715680803571428  11.2916666666667 1.10267857142857  11.7708333333333 1.59040178571428  C 12.25 2.078125  12.6302083333333 2.65597098214286  12.9114583333333 3.32393973214286  C 13.1927083333333 3.99190848214286  13.3333333333333 4.69345238095238  13.3333333333333 5.42857142857143  Z M 10.828125 2.54994419642857  C 10.046875 1.75474330357143  9.10416666666667 1.35714285714286  8 1.35714285714286  C 6.89583333333333 1.35714285714286  5.953125 1.75474330357143  5.171875 2.54994419642857  C 4.390625 3.34514508928572  4 4.3046875  4 5.42857142857143  C 4 6.55245535714286  4.390625 7.51199776785714  5.171875 8.30719866071428  C 5.953125 9.10239955357143  6.89583333333333 9.5  8 9.5  C 9.10416666666667 9.5  10.046875 9.10239955357143  10.828125 8.30719866071428  C 11.609375 7.51199776785714  12 6.55245535714286  12 5.42857142857143  C 12 4.3046875  11.609375 3.34514508928572  10.828125 2.54994419642857  Z M 3.55208333333333 17.6428571428571  L 12.4479166666667 17.6428571428571  C 13.0590277777778 17.6428571428571  13.5815972222222 17.3901599702381  14.015625 16.884765625  C 14.4496527777778 16.3793712797619  14.6666666666667 15.7661830357143  14.6666666666667 15.0452008928571  C 14.6666666666667 13.3558407738095  14.3940972222222 12.0234375  13.8489583333333 11.0479910714286  C 13.3038194444444 10.0725446428571  12.5208333333333 9.56008184523809  11.5 9.51060267857143  C 10.4930555555556 10.4082961309524  9.32638888888889 10.8571428571429  8 10.8571428571429  C 6.67361111111111 10.8571428571429  5.50694444444445 10.4082961309524  4.5 9.51060267857143  C 3.47916666666667 9.56008184523809  2.69618055555556 10.0725446428571  2.15104166666667 11.0479910714286  C 1.60590277777778 12.0234375  1.33333333333333 13.3558407738095  1.33333333333333 15.0452008928571  C 1.33333333333333 15.7661830357143  1.55034722222222 16.3793712797619  1.984375 16.884765625  C 2.41840277777778 17.3901599702381  2.94097222222222 17.6428571428571  3.55208333333333 17.6428571428571  Z " fill-rule="nonzero" fill="#ffffff" stroke="none" transform="matrix(1 0 0 1 1265 37 )" />
  </g>
</svg>