<?xml version="1.0" encoding="utf-8"?>
<svg version="1.1" xmlns:xlink="http://www.w3.org/1999/xlink" width="10px" height="13px" xmlns="http://www.w3.org/2000/svg">
  <g transform="matrix(1 0 0 1 -475 -381 )">
    <path d="M 9.82817869415807 6.20040080160321  C 9.94272623138603 6.2872411489646  10 6.38710754843019  10 6.5  C 10 6.61289245156981  9.94272623138603 6.7127588510354  9.82817869415807 6.79959919839679  L 1.8213058419244 12.8697394789579  C 1.70675830469645 12.9565798263193  1.57502863688431 13  1.42611683848797 13  C 1.27720504009164 13  1.1454753722795 12.9565798263193  1.03092783505155 12.8697394789579  L 0.171821305841924 12.2184368737475  C 0.0572737686139748 12.1315965263861  0 12.0317301269205  0 11.9188376753507  C 0 11.8059452237809  0.0572737686139748 11.7060788243153  0.171821305841924 11.6192384769539  L 6.92439862542955 6.5  L 0.171821305841924 1.38076152304609  C 0.0572737686139748 1.2939211756847  0 1.1940547762191  0 1.0811623246493  C 0 0.968269873079491  0.0572737686139748 0.868403473613893  0.171821305841924 0.781563126252504  L 1.03092783505155 0.130260521042084  C 1.1454753722795 0.0434201736806943  1.27720504009164 0  1.42611683848797 0  C 1.57502863688431 0  1.70675830469645 0.0434201736806943  1.8213058419244 0.130260521042084  L 9.82817869415807 6.20040080160321  Z " fill-rule="nonzero" fill="#d9463b" stroke="none" transform="matrix(1 0 0 1 475 381 )" />
  </g>
</svg>