<?xml version="1.0" encoding="utf-8"?>
<svg version="1.1" xmlns:xlink="http://www.w3.org/1999/xlink" width="10px" height="13px" xmlns="http://www.w3.org/2000/svg">
  <g transform="matrix(1 0 0 1 -45 -381 )">
    <path d="M 9.82817869415807 0.781563126252504  C 9.94272623138603 0.868403473613893  10 0.968269873079491  10 1.0811623246493  C 10 1.1940547762191  9.94272623138603 1.2939211756847  9.82817869415807 1.38076152304609  L 3.07560137457045 6.5  L 9.82817869415807 11.6192384769539  C 9.94272623138603 11.7060788243153  10 11.8059452237809  10 11.9188376753507  C 10 12.0317301269205  9.94272623138603 12.1315965263861  9.82817869415807 12.2184368737475  L 8.96907216494845 12.8697394789579  C 8.8545246277205 12.9565798263193  8.72279495990836 13  8.57388316151203 13  C 8.4249713631157 13  8.29324169530355 12.9565798263193  8.1786941580756 12.8697394789579  L 0.171821305841924 6.79959919839679  C 0.0572737686139748 6.7127588510354  0 6.61289245156981  0 6.5  C 0 6.38710754843019  0.0572737686139748 6.2872411489646  0.171821305841924 6.20040080160321  L 8.1786941580756 0.130260521042084  C 8.29324169530355 0.0434201736806943  8.4249713631157 0  8.57388316151203 0  C 8.72279495990836 0  8.8545246277205 0.0434201736806943  8.96907216494845 0.130260521042084  L 9.82817869415807 0.781563126252504  Z " fill-rule="nonzero" fill="#8c8c8c" stroke="none" transform="matrix(1 0 0 1 45 381 )" />
  </g>
</svg>